<svg version="1.2" baseProfile="tiny-ps" xmlns="http://www.w3.org/2000/svg" viewBox="0 0 15 13" width="15" height="13">
	<title>desktop_wishlist – toplayer</title>
	<style>
		tspan { white-space:pre }
		.shp0 { fill: #5cba0e } 
	</style>
	<g id="desktop_wishlist – toplayer">
		<g id="dostepnosc wyywslka">
			<path id="ok" class="shp0" d="M15 3.25C15 3.51 14.91 3.73 14.72 3.91L6.4 12.24C6.21 12.41 5.99 12.5 5.74 12.5C5.49 12.5 5.27 12.41 5.08 12.24L0.26 7.42C0.09 7.23 0 7.01 0 6.76C0 6.5 0.09 6.28 0.26 6.1L1.58 4.78C1.76 4.6 1.98 4.5 2.24 4.5C2.49 4.5 2.71 4.6 2.9 4.78L5.74 7.64L12.09 1.28C12.27 1.09 12.49 1 12.75 1C13 1 13.22 1.09 13.4 1.28L14.72 2.6C14.91 2.77 15 2.99 15 3.25L15 3.25Z" />
		</g>
	</g>
</svg>