<svg version="1.2" baseProfile="tiny-ps" xmlns="http://www.w3.org/2000/svg" viewBox="0 0 16 16" width="16" height="16">
	<title>desktop_wishlist – toplayer</title>
	<style>
		tspan { white-space:pre }
		.shp0 { fill: #000000 } 
	</style>
	<g id="desktop_wishlist – toplayer">
		<g id="dostepnosc wyywslka">
			<path id="delivery-time-tool" fill-rule="evenodd" class="shp0" d="M13.68 4.24L13.21 4.72C14.35 6.07 14.99 7.87 14.79 9.82C14.48 13.05 11.85 15.64 8.64 15.93C4.83 16.28 1.58 13.48 1.2 9.84L0.53 9.84C0.12 9.84 -0.13 9.39 0.07 9.04L1.57 6.43C1.77 6.08 2.28 6.08 2.49 6.43L3.98 9.04C4.19 9.39 3.94 9.84 3.54 9.84L2.95 9.84C3.33 12.56 5.86 14.59 8.75 14.16C10.92 13.86 12.65 12.16 13.01 10.01C13.55 6.82 11.09 4.03 7.99 4.03C6.99 4.03 6.02 4.32 5.18 4.88C4.79 5.13 4.25 5.08 3.97 4.72C3.67 4.3 3.76 3.75 4.17 3.46C5.07 2.86 6.08 2.48 7.15 2.35L7.15 1.36L6.45 1.36C6.21 1.36 6.02 1.17 6.02 0.93L6.02 0.49C6.02 0.25 6.21 0.06 6.45 0.06L9.68 0.06C9.91 0.06 10.1 0.25 10.1 0.49L10.1 0.93C10.1 1.17 9.91 1.36 9.68 1.36L8.91 1.36L8.91 2.36C10.28 2.54 11.52 3.13 12.51 4L12.93 3.56L12.62 3.25C12.44 3.1 12.43 2.81 12.6 2.63L12.93 2.27C13.11 2.09 13.38 2.08 13.55 2.24L14.86 3.45C15.03 3.62 15.05 3.89 14.89 4.07L14.54 4.43C14.38 4.61 14.1 4.62 13.92 4.46L13.68 4.24L13.68 4.24ZM8.94 8.22C9.33 8.61 9.42 9.17 9.25 9.66L10.65 11.41C10.92 11.74 10.47 12.17 10.14 11.9L8.4 10.49C7.85 10.68 7.18 10.5 6.81 9.95C6.51 9.5 6.5 8.88 6.81 8.44C7.31 7.67 8.34 7.61 8.94 8.22Z" />
		</g>
	</g>
</svg>